<svg xmlns="http://www.w3.org/2000/svg" width="1600" height="1100" viewBox="0 0 1600 1100">
  <defs>
    <linearGradient id="g" x1="0" y1="0" x2="1" y2="1">
      <stop offset="0" stop-color="#eef2ff"/>
      <stop offset="1" stop-color="#ffffff"/>
    </linearGradient>
    <linearGradient id="g2" x1="0" y1="0" x2="0" y2="1">
      <stop offset="0" stop-color="#0f172a"/>
      <stop offset="1" stop-color="#111827"/>
    </linearGradient>
  </defs>

  <rect width="1600" height="1100" rx="36" fill="url(#g)"/>
  <rect x="840" y="0" width="760" height="1100" rx="36" fill="url(#g2)"/>

  <!-- Shelf / books (right) -->
  <g opacity="0.9">
    <rect x="920" y="120" width="620" height="120" rx="18" fill="#1f2937"/>
    <rect x="940" y="150" width="90" height="60" rx="10" fill="#60a5fa"/>
    <rect x="1040" y="150" width="60" height="60" rx="10" fill="#a78bfa"/>
    <rect x="1110" y="150" width="110" height="60" rx="10" fill="#34d399"/>
    <rect x="1230" y="150" width="70" height="60" rx="10" fill="#f472b6"/>
    <rect x="1310" y="150" width="120" height="60" rx="10" fill="#fbbf24"/>

    <rect x="920" y="280" width="620" height="120" rx="18" fill="#1f2937"/>
    <rect x="940" y="310" width="120" height="60" rx="10" fill="#fb7185"/>
    <rect x="1070" y="310" width="70" height="60" rx="10" fill="#22c55e"/>
    <rect x="1150" y="310" width="100" height="60" rx="10" fill="#38bdf8"/>
    <rect x="1260" y="310" width="60" height="60" rx="10" fill="#a3a3a3"/>
    <rect x="1330" y="310" width="120" height="60" rx="10" fill="#c084fc"/>
  </g>

  <!-- Abstract person reading (right/bottom) -->
  <g transform="translate(920 520)">
    <rect x="40" y="430" width="560" height="80" rx="30" fill="#0b1220" opacity="0.85"/>
    <path d="M190 430c40-90 160-90 200 0" fill="#0b1220" opacity="0.85"/>

    <circle cx="300" cy="160" r="70" fill="#f8d4b4"/>
    <path d="M230 155c30-55 120-55 140 0v90H230z" fill="#111827"/>
    <path d="M215 300c35-85 135-85 170 0l45 170H170z" fill="#0f172a"/>

    <!-- Book -->
    <path d="M205 360c70-28 120-28 190 0v140c-70-28-120-28-190 0z" fill="#e5e7eb"/>
    <path d="M395 360c70-28 120-28 190 0v140c-70-28-120-28-190 0z" fill="#f3f4f6"/>
    <path d="M395 360v140" stroke="#cbd5e1" stroke-width="3"/>
    <path d="M240 405h120M240 435h110M240 465h95" stroke="#9ca3af" stroke-width="5" stroke-linecap="round"/>
  </g>

  <!-- Subtle left-side decoration -->
  <circle cx="280" cy="230" r="140" fill="#a5b4fc" opacity="0.25"/>
  <circle cx="420" cy="330" r="90" fill="#60a5fa" opacity="0.18"/>
  <path d="M130 860c140-120 300-140 520-40" fill="none" stroke="#c7d2fe" stroke-width="18" stroke-linecap="round" opacity="0.8"/>
</svg>
