<svg xmlns="http://www.w3.org/2000/svg" width="1200" height="720" viewBox="0 0 1200 720">
  <defs>
    <linearGradient id="p" x1="0" y1="0" x2="1" y2="1">
      <stop offset="0" stop-color="#fce7f3"/>
      <stop offset="1" stop-color="#ffffff"/>
    </linearGradient>
  </defs>
  <rect width="1200" height="720" rx="28" fill="url(#p)"/>
  <rect x="90" y="90" width="1020" height="540" rx="22" fill="#ffffff" stroke="#e5e7eb"/>

  <rect x="140" y="150" width="420" height="430" rx="18" fill="#111827" opacity="0.06"/>
  <rect x="170" y="190" width="260" height="18" rx="9" fill="#111827" opacity="0.8"/>
  <rect x="170" y="225" width="320" height="12" rx="6" fill="#64748b" opacity="0.55"/>
  <rect x="170" y="255" width="290" height="12" rx="6" fill="#64748b" opacity="0.5"/>

  <rect x="170" y="305" width="360" height="210" rx="16" fill="#0f172a" opacity="0.9"/>
  <path d="M210 455c40-60 90-90 150-70 50 16 85 65 120 80 22 10 45 8 80-12" fill="none" stroke="#f472b6" stroke-width="16" stroke-linecap="round"/>
  <circle cx="250" cy="405" r="16" fill="#22c55e"/>
  <circle cx="350" cy="385" r="16" fill="#38bdf8"/>
  <circle cx="455" cy="430" r="16" fill="#fbbf24"/>

  <rect x="600" y="150" width="450" height="260" rx="18" fill="#0f172a" opacity="0.92"/>
  <rect x="630" y="190" width="220" height="14" rx="7" fill="#e5e7eb" opacity="0.85"/>
  <rect x="630" y="220" width="370" height="10" rx="5" fill="#94a3b8" opacity="0.55"/>
  <rect x="630" y="245" width="330" height="10" rx="5" fill="#94a3b8" opacity="0.5"/>

  <rect x="600" y="440" width="450" height="140" rx="18" fill="#4f46e5" opacity="0.16"/>
  <rect x="630" y="480" width="160" height="38" rx="12" fill="#4f46e5" opacity="0.9"/>
  <rect x="805" y="480" width="215" height="12" rx="6" fill="#64748b" opacity="0.55"/>
  <rect x="805" y="505" width="180" height="12" rx="6" fill="#64748b" opacity="0.5"/>
</svg>
