<svg xmlns="http://www.w3.org/2000/svg" width="1200" height="720" viewBox="0 0 1200 720">
  <defs>
    <linearGradient id="p" x1="0" y1="0" x2="1" y2="1">
      <stop offset="0" stop-color="#c7d2fe"/>
      <stop offset="1" stop-color="#ffffff"/>
    </linearGradient>
  </defs>
  <rect width="1200" height="720" rx="28" fill="url(#p)"/>
  <rect x="90" y="90" width="1020" height="540" rx="22" fill="#ffffff" stroke="#e5e7eb"/>
  <rect x="140" y="150" width="280" height="30" rx="8" fill="#111827" opacity="0.85"/>
  <rect x="140" y="205" width="420" height="16" rx="8" fill="#64748b" opacity="0.6"/>
  <rect x="140" y="235" width="380" height="16" rx="8" fill="#64748b" opacity="0.5"/>
  <rect x="140" y="290" width="180" height="44" rx="12" fill="#4f46e5"/>

  <rect x="620" y="150" width="430" height="310" rx="18" fill="#0f172a" opacity="0.9"/>
  <rect x="650" y="185" width="150" height="14" rx="7" fill="#e5e7eb" opacity="0.8"/>
  <rect x="650" y="220" width="370" height="10" rx="5" fill="#94a3b8" opacity="0.6"/>
  <rect x="650" y="245" width="320" height="10" rx="5" fill="#94a3b8" opacity="0.55"/>

  <g opacity="0.85">
    <rect x="650" y="290" width="120" height="120" rx="16" fill="#22c55e"/>
    <rect x="790" y="290" width="120" height="120" rx="16" fill="#60a5fa"/>
    <rect x="930" y="290" width="120" height="120" rx="16" fill="#f472b6"/>
  </g>
</svg>
