<svg xmlns="http://www.w3.org/2000/svg" width="1200" height="720" viewBox="0 0 1200 720">
  <defs>
    <linearGradient id="p" x1="0" y1="0" x2="1" y2="1">
      <stop offset="0" stop-color="#e0f2fe"/>
      <stop offset="1" stop-color="#ffffff"/>
    </linearGradient>
  </defs>
  <rect width="1200" height="720" rx="28" fill="url(#p)"/>
  <rect x="90" y="90" width="1020" height="540" rx="22" fill="#ffffff" stroke="#e5e7eb"/>

  <rect x="140" y="150" width="260" height="430" rx="18" fill="#0f172a" opacity="0.92"/>
  <rect x="170" y="190" width="200" height="14" rx="7" fill="#e5e7eb" opacity="0.85"/>
  <rect x="170" y="225" width="160" height="10" rx="5" fill="#94a3b8" opacity="0.6"/>
  <rect x="170" y="255" width="180" height="10" rx="5" fill="#94a3b8" opacity="0.55"/>
  <rect x="170" y="315" width="200" height="40" rx="12" fill="#38bdf8" opacity="0.9"/>
  <rect x="170" y="375" width="200" height="40" rx="12" fill="#22c55e" opacity="0.85"/>
  <rect x="170" y="435" width="200" height="40" rx="12" fill="#a78bfa" opacity="0.8"/>

  <rect x="430" y="150" width="620" height="120" rx="18" fill="#111827" opacity="0.08"/>
  <rect x="460" y="190" width="220" height="18" rx="9" fill="#111827" opacity="0.75"/>
  <rect x="460" y="220" width="360" height="10" rx="5" fill="#64748b" opacity="0.55"/>

  <rect x="430" y="300" width="290" height="280" rx="18" fill="#4f46e5" opacity="0.15"/>
  <rect x="760" y="300" width="290" height="280" rx="18" fill="#06b6d4" opacity="0.13"/>

  <rect x="460" y="340" width="230" height="12" rx="6" fill="#64748b" opacity="0.6"/>
  <rect x="460" y="365" width="190" height="12" rx="6" fill="#64748b" opacity="0.55"/>
  <rect x="790" y="340" width="230" height="12" rx="6" fill="#64748b" opacity="0.6"/>
  <rect x="790" y="365" width="190" height="12" rx="6" fill="#64748b" opacity="0.55"/>
</svg>
